<svg id="Layer_1" data-name="Layer 1" xmlns="http://www.w3.org/2000/svg" viewBox="0 0 116.79 122.88"><defs><style>.cls-1{fill-rule:evenodd;}</style></defs><title>female-user</title><path class="cls-1" d="M75.4,74c-6.51,11.9-26,12.82-35,.82h0c2.81-1,4.86-2.43,5.53-4.32a19.85,19.85,0,0,0,11.3,3.83c4.6,0,9.15-1.91,13.24-5,.46,2,2.31,3.57,5,4.72ZM30.92,76.52C24.24,78,18,79.88,13.67,82.39c-10,5.85-9.45,19.77-11.86,31-.68,3.17-1.36,6.33-1.81,9.5H22.89V115.2a2.31,2.31,0,1,1,4.61,0v7.68H89.23V115.2a2.31,2.31,0,1,1,4.62,0v7.68h22.94c-.39-2.06-.84-4.09-1.18-6.19-1.88-11.73-1.89-28.4-13-34.23-4.94-2.6-12.08-4.63-19-6.42,10.25,1.28,23-.69,24.66-5.44-15.07-1.22-19.8-24.35-19.7-41.19C86.11,4.64,63.88-4.72,46.68,2.23,25,11,27.87,30.12,25.82,48.11,24.47,59.87,20.46,69.72,9.56,70.6c1.53,4.31,12,6.43,21.36,5.92ZM64.64,18.3c-10.12,10.24-20.79,14.25-32,17.09a6.74,6.74,0,0,0-.11,1.81c0,15.48,11.68,34.06,24.71,34.06S83.4,52.68,83.4,37.2a21.28,21.28,0,0,0-1.1-6.93c-9.84-.11-13.67-5.06-17.66-12Z"/></svg>