<svg width="910" height="1045" viewBox="0 0 910 1045" fill="none" xmlns="http://www.w3.org/2000/svg">
<path d="M0.770142 189.567L53.6172 142.425C67.6331 129.922 86.0554 123.514 104.831 124.611C123.607 125.708 141.199 134.219 153.736 148.274C166.273 162.328 172.729 180.774 171.684 199.552C170.638 218.331 162.177 235.905 148.161 248.408L95.3138 295.551L0.770142 189.567Z" fill="#F8F8F8"/>
<path d="M306.702 106.98L253.855 154.123C239.839 166.626 221.417 173.034 202.641 171.937C183.865 170.84 166.273 162.328 153.736 148.274C141.199 134.219 134.743 115.774 135.788 96.9951C136.834 78.2162 145.295 60.6423 159.311 48.1392L212.158 0.996582L306.702 106.98Z" fill="#F8F8F8"/>
<path d="M771.075 255.97C753.227 249.959 738.497 237.104 730.126 220.233C721.755 203.362 720.429 183.856 726.44 166.007C732.451 148.159 745.306 133.429 762.177 125.058C779.048 116.687 798.554 115.361 816.402 121.372L771.075 255.97Z" fill="#F8F8F8"/>
<path d="M771.075 255.97C765.065 273.818 752.21 288.548 735.339 296.919C718.467 305.29 698.962 306.616 681.113 300.605C663.264 294.594 648.534 281.739 640.164 264.868C631.793 247.997 630.467 228.491 636.478 210.643L771.075 255.97Z" fill="#F8F8F8"/>
<path d="M771.075 255.97C777.086 238.121 789.941 223.391 806.812 215.02C823.683 206.649 843.189 205.324 861.038 211.334C878.886 217.345 893.616 230.2 901.987 247.071C910.358 263.942 911.684 283.448 905.673 301.297L771.075 255.97Z" fill="#F8F8F8"/>
<path d="M771.075 255.97C788.924 261.98 803.654 274.835 812.025 291.707C820.396 308.578 821.721 328.083 815.711 345.932C809.7 363.781 796.845 378.511 779.974 386.881C763.103 395.252 743.597 396.578 725.748 390.567L771.075 255.97Z" fill="#F8F8F8"/>
<path d="M94.5 763H165V904H94.5V763Z" fill="#F8F8F8"/>
<path d="M94.5 904H165V1045H94.5V904Z" fill="#F8F8F8"/>
<path d="M235.5 904H165V763H235.5V904Z" fill="#F8F8F8"/>
<path d="M235.5 1045H165V904H235.5V1045Z" fill="#F8F8F8"/>
<path d="M681.694 614.726L708.202 711.449L804.997 685.206L769.853 746.689L673.058 772.932L646.551 676.209L681.694 614.726Z" fill="#F8F8F8"/>
<path d="M664.422 931.138L637.914 834.415L541.119 860.658L576.263 799.175L673.058 772.932L699.566 869.655L664.422 931.138Z" fill="#F8F8F8"/>
<path d="M858.012 878.652L831.505 781.929L734.709 808.172L769.853 746.689L866.649 720.446L893.156 817.169L858.012 878.652Z" fill="#F8F8F8"/>
<path d="M734.709 808.172L761.217 904.895L858.012 878.652L822.868 940.135L726.073 966.378L699.566 869.655L734.709 808.172Z" fill="#F8F8F8"/>
</svg>
